HIERARCHY
ROOT joint_Root
{
	OFFSET 0.0 0.0 0.0
	CHANNELS 6 Xposition Yposition Zposition Zrotation Xrotation Yrotation 
	JOINT Hips
	{
		OFFSET -0.726466 93.3139 -2.00062
		CHANNELS 6 Xposition Yposition Zposition Zrotation Xrotation Yrotation 
		JOINT Spine
		{
			OFFSET 15.7357 0.0 0.0
			CHANNELS 6 Xposition Yposition Zposition Zrotation Xrotation Yrotation 
			JOINT Chest
			{
				OFFSET 8.98455 -0.406207 0.0
				CHANNELS 6 Xposition Yposition Zposition Zrotation Xrotation Yrotation 
				JOINT Neck
				{
					OFFSET 16.3773 0.0 0.0
					CHANNELS 6 Xposition Yposition Zposition Zrotation Xrotation Yrotation 
					JOINT Head
					{
						OFFSET 6.45672 0.0 0.0
						CHANNELS 6 Xposition Yposition Zposition Zrotation Xrotation Yrotation 
						End Site
						{
							OFFSET 0.0 0.0 0.0
						}
					}
				}
				JOINT Shoulder_L
				{
					OFFSET 12.9942 -0.242716 4.98039
					CHANNELS 6 Xposition Yposition Zposition Zrotation Xrotation Yrotation 
					JOINT UpperArm_L
					{
						OFFSET 5.34809 0.0 0.0
						CHANNELS 6 Xposition Yposition Zposition Zrotation Xrotation Yrotation 
						JOINT LowerArm_L
						{
							OFFSET 24.3286 1.87007e-05 0.0
							CHANNELS 6 Xposition Yposition Zposition Zrotation Xrotation Yrotation 
							JOINT Hand_L
							{
								OFFSET 22.2916 0.0 0.0
								CHANNELS 6 Xposition Yposition Zposition Zrotation Xrotation Yrotation 
								End Site
								{
									OFFSET 0.0 0.0 0.0
								}
							}
						}
					}
				}
				JOINT Shoulder_R
				{
					OFFSET 12.9945 -0.242716 -4.98039
					CHANNELS 6 Xposition Yposition Zposition Zrotation Xrotation Yrotation 
					JOINT UpperArm_R
					{
						OFFSET -5.34813 0.0 0.0
						CHANNELS 6 Xposition Yposition Zposition Zrotation Xrotation Yrotation 
						JOINT LowerArm_R
						{
							OFFSET -24.3289 0.000322201 0.0
							CHANNELS 6 Xposition Yposition Zposition Zrotation Xrotation Yrotation 
							JOINT Hand_R
							{
								OFFSET -22.2915 -0.000108084 0.0
								CHANNELS 6 Xposition Yposition Zposition Zrotation Xrotation Yrotation 
								End Site
								{
									OFFSET 0.0 0.0 0.0
								}
							}
						}
					}
				}
			}
		}
		JOINT UpperLeg_L
		{
			OFFSET -2.19248 -6.46944 0.0
			CHANNELS 6 Xposition Yposition Zposition Zrotation Xrotation Yrotation 
			JOINT LowerLeg_L
			{
				OFFSET 39.0811 0.0 -1.23785e-05
				CHANNELS 6 Xposition Yposition Zposition Zrotation Xrotation Yrotation 
				JOINT Foot_L
				{
					OFFSET 40.9854 0.0 -1.26872e-05
					CHANNELS 6 Xposition Yposition Zposition Zrotation Xrotation Yrotation 
					JOINT Toes_L
					{
						OFFSET 11.7543 0.0 0.0
						CHANNELS 6 Xposition Yposition Zposition Zrotation Xrotation Yrotation 
						End Site
						{
							OFFSET 0.0 0.0 0.0
						}
					}
				}
			}
		}
		JOINT UpperLeg_R
		{
			OFFSET -2.19251 6.46944 0.0
			CHANNELS 6 Xposition Yposition Zposition Zrotation Xrotation Yrotation 
			JOINT LowerLeg_R
			{
				OFFSET -39.0811 -0.00228153 -0.0401928
				CHANNELS 6 Xposition Yposition Zposition Zrotation Xrotation Yrotation 
				JOINT Foot_R
				{
					OFFSET -40.9854 0.0 0.0
					CHANNELS 6 Xposition Yposition Zposition Zrotation Xrotation Yrotation 
					JOINT Toes_R
					{
						OFFSET -11.7543 0.0 0.0
						CHANNELS 6 Xposition Yposition Zposition Zrotation Xrotation Yrotation 
						End Site
						{
							OFFSET 0.0 0.0 0.0
						}
					}
				}
			}
		}
	}
}
MOTION
Frames:	4
Frame Time:	0.0333333
0.000000 0.000000 0.000000 0.000000 0.000000 -0.000000 -0.520719 92.248200 -1.293030 88.166000 -0.441720 4.888980 15.735700 0.000005 -0.000001 83.619400 85.276500 -83.172100 8.984550 -0.406207 -0.000000 1.626990 -1.073230 0.908990 16.377300 -0.000001 -0.000001 2.682090 -2.397910 0.577210 6.456720 -0.000001 -0.000000 5.572350 -2.615760 -0.774252 12.994200 -0.242716 4.980390 -90.012400 0.040270 -72.898700 5.348090 -0.000007 -0.000001 -66.016100 43.798500 -19.117800 24.328600 0.000019 0.000005 1.708930 4.173800 -22.288600 22.291600 -0.000001 0.000005 0.949426 5.450240 -4.643190 12.994500 -0.242716 -4.980390 88.198500 6.108440 -73.533400 -5.348130 -0.000001 -0.000004 -64.974300 41.533900 -18.301200 -24.328900 0.000322 -0.000009 3.037750 9.662910 -17.550600 -22.291500 -0.000108 -0.000004 3.992350 5.377210 -2.208610 -2.192480 -6.469440 -0.000000 -175.772000 -6.300590 -2.274980 39.081100 -0.000007 -0.000012 -0.098300 0.227366 23.380900 40.985400 -0.000006 -0.000013 -0.111472 2.962370 -66.443700 11.754300 -0.000000 0.000003 -0.000032 -0.000382 -16.592500 -2.192510 6.469440 -0.000001 179.188000 15.170500 -178.948000 -39.081100 -0.002282 -0.040193 -0.021848 0.069993 19.778900 -40.985400 0.000008 0.000006 3.600770 6.024270 -66.303600 -11.754300 -0.000006 -0.000006 -0.006136 -0.072069 -19.506300
0.000000 0.000000 0.000000 0.000000 0.000000 -0.000000 -0.530259 92.236000 -1.306330 88.188500 -0.301372 5.047280 15.735700 0.000005 -0.000001 83.858200 85.288800 -83.436700 8.984550 -0.406207 -0.000000 1.606430 -1.030180 0.856666 16.377300 -0.000001 -0.000001 2.741550 -2.500210 0.672345 6.456720 -0.000001 -0.000000 5.846400 -2.690460 -0.775899 12.994200 -0.242716 4.980390 -90.025800 0.084182 -72.984000 5.348090 -0.000007 -0.000001 -64.363300 43.643400 -21.051300 24.328600 0.000019 0.000005 2.657400 6.292380 -22.950000 22.291600 -0.000001 0.000005 -1.944580 5.434090 -4.073680 12.994500 -0.242716 -4.980390 88.243900 5.984490 -73.613000 -5.348130 -0.000001 -0.000004 -64.154800 41.763100 -18.950100 -24.328900 0.000322 -0.000009 3.280100 9.699220 -18.792400 -22.291500 -0.000108 -0.000004 1.412020 5.351320 -1.404990 -2.192480 -6.469440 -0.000000 -175.764000 -6.313530 -2.180640 39.081100 -0.000007 -0.000012 -0.098184 0.226247 23.459300 40.985400 -0.000006 -0.000013 -0.088537 3.078060 -66.463400 11.754300 -0.000000 0.000003 -0.000035 -0.000410 -16.593500 -2.192510 6.469440 -0.000001 179.136000 15.182600 -178.821000 -39.081100 -0.002282 -0.040193 -0.022148 0.070501 19.863000 -40.985400 0.000008 0.000006 3.495800 5.922860 -66.336500 -11.754300 -0.000006 -0.000006 -0.005919 -0.070102 -19.426100
0.000000 0.000000 0.000000 0.000000 0.000000 -0.000000 -0.555424 92.215900 -1.348550 88.188500 -0.066796 5.268070 15.735700 0.000005 -0.000001 83.423900 85.280300 -83.027900 8.984550 -0.406207 -0.000000 1.615520 -1.101680 0.806796 16.377300 -0.000001 -0.000001 2.886610 -2.548290 0.689909 6.456720 -0.000001 -0.000000 6.098170 -2.791940 -0.637656 12.994200 -0.242716 4.980390 -90.048300 0.158136 -73.024000 5.348090 -0.000007 -0.000001 -61.889500 42.257200 -23.962200 24.328600 0.000019 0.000005 3.150750 7.062270 -24.118100 22.291600 -0.000001 0.000005 -4.494530 5.407090 -3.163350 12.994500 -0.242716 -4.980390 88.275000 5.893310 -73.653200 -5.348130 -0.000001 -0.000004 -62.174100 41.499500 -20.906500 -24.328900 0.000322 -0.000009 3.732940 9.959080 -20.673900 -22.291500 -0.000108 -0.000004 -3.101100 5.326650 -0.679365 -2.192480 -6.469440 -0.000000 -175.728000 -6.153330 -2.105370 39.081100 -0.000007 -0.000012 -0.100912 0.230696 23.625700 40.985400 -0.000006 -0.000013 -0.080230 3.192250 -66.497800 11.754300 -0.000000 0.000003 -0.000039 -0.000457 -16.595400 -2.192510 6.469440 -0.000001 179.097000 15.270700 -178.688000 -39.081100 -0.002282 -0.040193 -0.024327 0.075838 20.030400 -40.985400 0.000008 0.000006 3.492720 5.764160 -66.406800 -11.754300 -0.000006 -0.000006 -0.006179 -0.072450 -19.521800
0.000000 0.000000 0.000000 0.000000 0.000000 -0.000000 -0.569774 92.209100 -1.432750 88.236700 0.069316 5.546290 15.735700 0.000005 -0.000001 83.309600 85.271400 -82.950700 8.984550 -0.406207 -0.000000 1.630620 -1.120410 0.732983 16.377300 -0.000001 -0.000001 3.167350 -2.636250 0.648737 6.456720 -0.000001 -0.000000 6.360920 -2.876110 -0.516404 12.994200 -0.242716 4.980390 -90.055400 0.183183 -73.171800 5.348090 -0.000007 -0.000001 -59.402500 38.719900 -27.350300 24.328600 0.000019 0.000005 3.808810 7.821440 -26.067500 22.291600 -0.000001 0.000005 -5.627620 5.384620 -2.444040 12.994500 -0.242716 -4.980390 88.279100 5.835000 -73.536300 -5.348130 -0.000001 -0.000004 -58.980500 40.107200 -24.386400 -24.328900 0.000322 -0.000009 4.444620 10.354500 -23.390900 -22.291500 -0.000108 -0.000004 -7.132890 5.316510 -0.393481 -2.192480 -6.469440 -0.000000 -175.740000 -6.115500 -1.929170 39.081100 -0.000007 -0.000012 -0.100557 0.229302 23.679200 40.985400 -0.000006 -0.000013 -0.062581 3.294870 -66.455400 11.754300 -0.000000 0.000003 -0.000036 -0.000429 -16.594300 -2.192510 6.469440 -0.000001 179.001000 15.261900 -178.514000 -39.081100 -0.002282 -0.040193 -0.025828 0.079406 20.157300 -40.985400 0.000008 0.000006 3.427700 5.645990 -66.413600 -11.754300 -0.000006 -0.000006 -0.006166 -0.072337 -19.517200
